<?xml version="1.0" encoding="UTF-8"?>
<svg width="752pt" height="752pt" version="1.1" viewBox="0 0 752 752" xmlns="http://www.w3.org/2000/svg">
 <path d="m488.28 254.25v-69.445c0-17.414-14.168-31.582-31.586-31.582l-153.5-0.003906c-17.414 0-31.582 14.168-31.582 31.582v27.02h-2.7617v17.367h2.7617v14.008h-2.7617v31.77h2.7617v7.8945h-2.7617v31.77h2.7617v246.45c0 17.418 14.168 31.582 31.582 31.582h153.5c17.418 0 31.586-14.164 31.586-31.582v-256.52h2.3672l0.003906-50.316zm-9.4688 0v306.83c0 12.191-9.9219 22.113-22.117 22.113l-153.5-0.003906c-12.191 0-22.113-9.9219-22.113-22.113v-376.27c0-12.195 9.9219-22.113 22.113-22.113h22.684v6.2188c0 6.8945 6.0391 12.531 13.426 12.531h80.887c7.3945-0.003906 11.73-5.6445 11.73-12.535v-6.2148h24.77c12.195 0 22.117 9.918 22.117 22.113z"/>
</svg>
