<?xml version="1.0" encoding="utf-8"?>
<!-- Generator: Adobe Illustrator 25.2.1, SVG Export Plug-In . SVG Version: 6.00 Build 0)  -->
<svg version="1.1" id="Layer_1" xmlns="http://www.w3.org/2000/svg" xmlns:xlink="http://www.w3.org/1999/xlink" x="0px" y="0px"
	 viewBox="0 0 642.7 257.6" style="enable-background:new 0 0 642.7 257.6;" xml:space="preserve">
<g>
	<path d="M11.5,243.9c-4.1-1.8-4.7-2.1-4.7-3.1c0-1.1,1-1.8,2-1.8c1.8,0,2,1.4,2.1,2.2h5.7c-0.1-5.4-4.5-7-7.6-7
		c-3.8,0-7.9,2.4-7.9,7c0,4.3,3.9,5.8,5.5,6.5c3.5,1.5,4.4,1.8,4.4,3c0,1-0.8,2.2-2.2,2.2c-0.7,0-2.4-0.5-2.4-3.1H0.8
		c-0.2,4.4,2.2,7.9,8.2,7.9c6,0,7.9-3.6,7.9-7.2C16.8,247.7,15.8,245.8,11.5,243.9z"/>
	<path d="M38.7,246.4c0.6-1,1.1-2.4,1.1-4.1c0-2.5-0.9-4.7-2.8-6.2c-1.3-1-3.5-1.6-7-1.6h-7.4v22.6h5.8v-17.6h2.1
		c0.8,0,1.7,0.2,2.4,0.6c0.8,0.5,1.3,1.4,1.3,2.6c0,1.3-0.6,2.3-1.3,2.8c-0.8,0.5-2,0.6-3.5,0.6h-0.9l5.9,10.9h6l-4.7-8.3
		C36.8,248.4,37.9,247.6,38.7,246.4z"/>
	<path d="M60,236.2c-1.2-1-2.8-1.7-7-1.7h-7.4v22.6h5.8v-7.1h2.3c3.5,0,5-0.6,6.6-2c1.4-1.2,2.4-3.6,2.4-5.9
		C62.7,239.9,61.8,237.7,60,236.2z M55.8,244.7c-0.8,0.3-1.7,0.3-2.2,0.3h-2.1v-5.4h1.9c0.6,0,1.6,0,2.4,0.3c0.8,0.3,1.4,1,1.4,2.3
		C57.2,243.6,56.6,244.3,55.8,244.7z"/>
	<path d="M79.1,239.2c3.1,0,4.8,2.3,5.5,3.9h6.1c-0.6-3.5-4.4-9-11.5-9c-7.4,0-11.9,5.9-11.9,11.7c0,6.1,4.8,11.8,11.9,11.8
		c5.5,0,10.1-3.5,11.4-8.9h-6.1c-0.4,0.8-1.8,3.8-5.4,3.8c-3.8,0-6.1-3.3-6.1-6.7C73,242.6,75.2,239.2,79.1,239.2z"/>
	<polygon points="121.2,249.1 116.9,234.5 109.2,234.5 109.2,257.2 114.5,257.2 114.3,240.2 119.2,257.2 123,257.2 127.9,240.2 
		127.8,257.2 133.1,257.2 133.1,234.5 125.3,234.5 	"/>
	<rect x="140.2" y="234.5" width="5.8" height="22.6"/>
	<polygon points="159.1,234.5 153.3,234.5 153.3,257.2 165.8,257.2 165.8,252.1 159.1,252.1 	"/>
	<path d="M178.3,234.5l-9,22.6h6.3l1-3.3h7.9l1.1,3.3h6.3l-8.7-22.6H178.3z M178.1,249.3l2.4-7.9l2.5,7.9H178.1z"/>
	<polygon points="211,248.3 202.4,234.5 197.4,234.5 197.4,257.2 202.9,257.2 202.8,243.5 211.4,257.2 216.5,257.2 216.5,234.5 
		210.9,234.5 	"/>
	<path d="M245.8,244.3v4.6h6.8c-0.3,1.1-0.9,2-1.9,2.6c-0.9,0.6-2.1,1-3.5,1c-2.8,0-6.2-2-6.2-6.8c0-4.5,3.3-6.6,6.2-6.6
		c1.6,0,2.8,0.6,3.8,1.4c0.5,0.5,0.9,1,1.2,1.5h6.5c-1.3-4.4-5.9-8-11.3-8c-6.7,0-12.1,4.9-12.1,11.7c0,6.5,5.2,11.9,12,11.9
		c3.7,0,8.8-1.9,11-6.9c1-2.2,1.2-4.9,1-6.5H245.8z"/>
	<path d="M270.7,234.5l-9,22.6h6.3l1-3.3h7.9l1.1,3.3h6.3l-8.7-22.6H270.7z M270.5,249.3l2.4-7.9l2.5,7.9H270.5z"/>
	<polygon points="295.7,234.5 289.9,234.5 289.9,257.2 302.4,257.2 302.4,252.1 295.7,252.1 	"/>
	<polygon points="307.7,257.2 320.5,257.2 320.5,252.1 313.5,252.1 313.5,248.2 320.3,248.2 320.3,243.1 313.5,243.1 313.5,239.6 
		320.5,239.6 320.5,234.5 307.7,234.5 	"/>
	<polygon points="351.4,249.1 347.2,234.5 339.4,234.5 339.4,257.2 344.7,257.2 344.6,240.2 349.4,257.2 353.3,257.2 358.2,240.2 
		358,257.2 363.3,257.2 363.3,234.5 355.5,234.5 	"/>
	<path d="M382,248.2c0,0.9,0,2-0.4,2.8c-0.3,0.8-1.1,1.5-2.5,1.5c-1.4,0-2.1-0.7-2.5-1.6c-0.4-0.9-0.4-2-0.4-2.7v-13.7h-5.8v13.7
		c0,3.3,0.4,4.9,2.3,7c1.9,2,4.9,2.4,6.5,2.4c2.8,0,4.9-0.9,6.3-2.4c1.4-1.5,2.3-3.1,2.3-6.9v-13.7H382V248.2z"/>
	<path d="M404.3,243.9c-4.1-1.8-4.7-2.1-4.7-3.1c0-1.1,1-1.8,2-1.8c1.8,0,2,1.4,2.1,2.2h5.7c-0.1-5.4-4.5-7-7.6-7
		c-3.8,0-7.9,2.4-7.9,7c0,4.3,3.9,5.8,5.5,6.5c3.5,1.5,4.4,1.8,4.4,3c0,1-0.8,2.2-2.2,2.2c-0.7,0-2.4-0.5-2.4-3.1h-5.7
		c-0.2,4.4,2.2,7.9,8.2,7.9c6,0,7.9-3.6,7.9-7.2C409.6,247.7,408.6,245.8,404.3,243.9z"/>
	<polygon points="403.2,232 408.2,226.9 403.3,226.9 401.6,228.7 399.9,226.9 394.9,226.9 399.9,232 	"/>
	<polygon points="434.4,234.5 428.3,234.5 421.8,244.7 421.8,234.5 416.1,234.5 416.1,257.2 421.8,257.2 421.8,247.4 428.1,257.2 
		435.1,257.2 426.9,245.8 	"/>
	<path d="M447.3,234.5l-9,22.6h6.3l1-3.3h7.9l1.1,3.3h6.3l-8.7-22.6H447.3z M447.1,249.3l2.4-7.9l2.5,7.9H447.1z"/>
	<polygon points="462.8,239.6 467.3,239.6 467.3,257.2 473,257.2 473,239.6 477.5,239.6 477.5,234.5 462.8,234.5 	"/>
	<rect x="482.9" y="234.5" width="5.8" height="22.6"/>
	<path d="M511.8,246.4c0.6-1,1.1-2.4,1.1-4.1c0-2.5-0.9-4.7-2.8-6.2c-1.3-1-3.5-1.6-7-1.6h-7.4v22.6h5.8v-17.6h2.1
		c0.8,0,1.7,0.2,2.4,0.6c0.8,0.5,1.3,1.4,1.3,2.6c0,1.3-0.6,2.3-1.3,2.8c-0.8,0.5-2,0.6-3.5,0.6h-0.9l5.9,10.9h6l-4.7-8.3
		C510,248.4,511.1,247.6,511.8,246.4z"/>
	<path d="M529.6,234.1c-6.2,0-11.9,4.6-11.9,12v0c0,5.8,4.8,11.5,11.9,11.5c7,0,12-5.4,12-11.7S536.6,234.1,529.6,234.1z
		 M529.7,252.5c-3.9,0-6.2-3.2-6.2-6.7v0c0-3.2,2.2-6.6,6.2-6.6c4.2,0,6.1,3.8,6.1,6.7C535.8,248.8,533.8,252.5,529.7,252.5z"/>
	<polygon points="555.4,250.4 550.8,234.5 544.8,234.5 552.4,257.2 558.3,257.2 565.9,234.5 560,234.5 	"/>
	<rect x="571.5" y="234.5" width="5.8" height="22.6"/>
	<path d="M595.4,239.2c3.1,0,4.8,2.3,5.5,3.9h6.1c-0.6-3.5-4.4-9-11.5-9c-7.4,0-11.9,5.9-11.9,11.7c0,6.1,4.8,11.8,11.9,11.8
		c5.5,0,10.1-3.5,11.4-8.9h-6.1c-0.4,0.8-1.8,3.8-5.4,3.8c-3.8,0-6.1-3.3-6.1-6.7C589.3,242.6,591.5,239.2,595.4,239.2z"/>
	<polygon points="378.2,133.1 378.2,213.8 402.4,213.8 402.4,163.1 402.4,133.1 	"/>
	<rect y="163.7" width="152.5" height="49.8"/>
	<rect width="152.5" height="35.6"/>
	<polygon points="0,163.7 152.5,85.6 152.5,35.6 0,113.8 	"/>
	<rect x="164.7" y="163.7" width="152.5" height="49.8"/>
	<rect x="164.7" width="152.5" height="35.6"/>
	<polygon points="164.7,35.6 164.7,85.6 317.1,163.7 317.1,113.8 	"/>
	<rect x="337.4" y="189.8" width="24.1" height="23.7"/>
	<rect x="618.6" y="106.3" width="24.1" height="18.3"/>
	<rect x="618.6" y="133.1" width="24.1" height="102.5"/>
	<polygon points="502.1,213.8 502.1,139 415.7,139 402.4,163.1 428.1,163.1 428.1,213.8 452.2,213.8 452.2,163.1 477.9,163.1 
		477.9,213.8 	"/>
	<path d="M605.6,213.8v-80.7h-24.1v26.1L570.2,139h-53.1v74.8h53.1l11.3-20.3v20.3H605.6z M541.2,189.7v-26.6h40.3v26.6H541.2z"/>
	<polygon points="596.8,231.9 601.9,226.9 597,226.9 591.9,231.9 	"/>
</g>
</svg>
